# xmcd
#
# Track frame offsets:
#	150
#	18293
#	39489
#	56364
#	74391
#	90348
#	102101
#	119655
#	131431
#	148742
#
# Disc length: 2292 seconds
#
# Revision: 0
# Processed by: cddbd v1.5.1PL0 Copyright (c) Steve Scherf et al.
# Submitted via: dBpowerAMP V4.0
#
DISCID=8208f20a
DTITLE=Omar and the Howlers - Hard Times in the Land of Plenty
DYEAR=1900
DGENRE=
TTITLE0=Hard Times in the Land of Plenty
TTITLE1=Dancing in the Canebrake
TTITLE2=Border Girl
TTITLE3=Mississippi Hoo Doo Man
TTITLE4=Don't Rock Me the Wrong Way
TTITLE5=Same Old Grind
TTITLE6=Don't You Know
TTITLE7=Shadow Man
TTITLE8=Lee Anne
TTITLE9=Lee Anne
EXTD=
EXTT0=
EXTT1=
EXTT2=
EXTT3=
EXTT4=
EXTT5=
EXTT6=
EXTT7=
EXTT8=
EXTT9=
PLAYORDER=
